<mxfile host="Electron" modified="2023-04-15T13:12:17.716Z" agent="Mozilla/5.0 (Windows NT 10.0; Win64; x64) AppleWebKit/537.36 (KHTML, like Gecko) draw.io/21.1.2 Chrome/106.0.5249.199 Electron/21.4.3 Safari/537.36" etag="1tV8KuWGgXgnzQIwJxz6" version="21.1.2" type="device">
  <diagram name="Page-1" id="2cc2dc42-3aac-f2a9-1cec-7a8b7cbee084">
    <mxGraphModel dx="2590" dy="2385" grid="1" gridSize="10" guides="1" tooltips="1" connect="1" arrows="1" fold="1" page="1" pageScale="1" pageWidth="1100" pageHeight="850" background="none" math="0" shadow="0">
      <root>
        <mxCell id="0" />
        <mxCell id="1" parent="0" />
        <mxCell id="7026571954dc6520-1" value="" style="strokeWidth=1;shadow=0;dashed=0;align=center;html=1;shape=mxgraph.mockup.containers.browserWindow;rSize=0;strokeColor=#666666;mainText=,;recursiveResize=0;rounded=0;labelBackgroundColor=none;fontFamily=Verdana;fontSize=12" parent="1" vertex="1">
          <mxGeometry x="30" y="-210" width="1060" height="1170" as="geometry" />
        </mxCell>
        <mxCell id="7026571954dc6520-2" value="Page 1" style="strokeWidth=1;shadow=0;dashed=0;align=center;html=1;shape=mxgraph.mockup.containers.anchor;fontSize=17;fontColor=#666666;align=left;" parent="7026571954dc6520-1" vertex="1">
          <mxGeometry x="60" y="12" width="110" height="26" as="geometry" />
        </mxCell>
        <mxCell id="7026571954dc6520-3" value="https://www.default.com" style="strokeWidth=1;shadow=0;dashed=0;align=center;html=1;shape=mxgraph.mockup.containers.anchor;rSize=0;fontSize=17;fontColor=#666666;align=left;" parent="7026571954dc6520-1" vertex="1">
          <mxGeometry x="130" y="60" width="250" height="26" as="geometry" />
        </mxCell>
        <mxCell id="7026571954dc6520-18" value="Button 3" style="strokeWidth=1;shadow=0;dashed=0;align=center;html=1;shape=mxgraph.mockup.buttons.button;strokeColor=#666666;mainText=;buttonStyle=round;fontSize=17;fontStyle=0;fillColor=none;whiteSpace=wrap;rounded=0;labelBackgroundColor=none;" parent="7026571954dc6520-1" vertex="1">
          <mxGeometry x="263.12" y="860" width="140" height="50" as="geometry" />
        </mxCell>
        <mxCell id="mRazqspsC4Ma7sNljstP-12" value="button for comfirming the Registration" style="text;html=1;strokeColor=none;fillColor=none;align=center;verticalAlign=middle;whiteSpace=wrap;rounded=0;fontColor=#EA2EFF;fontSize=17;" parent="7026571954dc6520-1" vertex="1">
          <mxGeometry x="175.62" y="1080" width="87.5" height="90" as="geometry" />
        </mxCell>
        <mxCell id="mRazqspsC4Ma7sNljstP-21" value="" style="endArrow=none;html=1;rounded=0;fillColor=#e1d5e7;strokeColor=#9673a6;strokeWidth=2;entryX=0.5;entryY=0;entryDx=0;entryDy=0;" parent="7026571954dc6520-1" source="7026571954dc6520-18" target="mRazqspsC4Ma7sNljstP-12" edge="1">
          <mxGeometry width="50" height="50" relative="1" as="geometry">
            <mxPoint x="330" y="468" as="sourcePoint" />
            <mxPoint x="195" y="425" as="targetPoint" />
          </mxGeometry>
        </mxCell>
        <mxCell id="_4hZOMIkI4JRDynTKEF_-9" value="" style="shape=image;verticalLabelPosition=bottom;labelBackgroundColor=default;verticalAlign=top;aspect=fixed;imageAspect=0;image=data:image/png,iVBORw0KGgoAAAANSUhEUgAAAMgAAABBCAYAAACU5+uOAAAAAXNSR0IArs4c6QAAAARnQU1BAACxjwv8YQUAAAAJcEhZcwAADsMAAA7DAcdvqGQAAAUySURBVHhe7d2/LzRBGAfwed9KROJHp+IPkNBIdFQkEgkKGkGQKO9foJKoJCoJIToKR4SIiqjQ0GmEaHR+hOjE65l35s3uvrOze7d7Zubm+0k2uzuRs8+8vjuze3f7/vr6xgBA6bdYA4ACAgKggYAAaCAgABoICIAGAgKggYAAaCAgABoICIAGAgKggYAAaCAgABoICIAGAgKggYAAaCAgABoICIDGf98onJubY6enp2Lvr7e3N/b5+cmurq5ES3oNDQ2so6ND7DHW2trKF6mnp0dsMVZfXx/62Z/iY81EVff7+zurq6vj2y8vL2XVn0W0r6Kor6h/VaL9HtXS0qJ9bSUKiHR3d0dhsWb5Lubr+4/pa319XRxh/nysmdhWt6klqb9DAZmYmFC+iOmlu7tbHGH+fKyZ2Fq3qSWuv0NTLBr65ZBLw9Hk5CTfpqE2blgLTheC7u/v+RKHhjo5HO7u7vI1kb+Lhva9vT3eRvvPz898O28+1kzKqVuHaqOlFPS7sk7hglMu2qbXS3rdkvqbx0SgFFETLZU+g6VRKBT+Hc/3wYvWfPlYM7GtblOS+tvqu1jBM1nWM40rfKzZpKT+DgWE7mBIwW1TaCiUjo6OxFa+fKyZ2Fa3KUn9HQpIW1ub2GL/bvWZFEx3TU2N2MqXjzUT2+o2Jam/QwEp9SLrJ52cnIgttYWFBdbX1yf20nO55uPjY9bV1cVub29FS3o2122Kqr+r5p305eVl9vDwIPb8sLa2xs7Pz1ljY6NogbyFAhJ3+9J2W1tb7PHxkY2Pj4uW9Fyt+enpiW1vb7Pe3l7W1NQkWtNzte6f5swIEv1IRNDOzg5fz87O8nW10NVM4SBTU1N8Ddmp+tv5KRadSQ8PD8s+k7pqY2ODX1yPjo6KFqgE5wNCZ1K6TTk0NCRaqh9dlNO1R39/v2iBSnEmIO3t7WIrrFgs8jPpyMiIaKkecTXL6dX09DRfQz5U/R0bkOD9YRuojoemV3Srk86keUyvXKiZbG5usubmZj6tzINtdZui6ofYgOg+V2+LlZUVvh4eHubrrFyo+fLykt3c3LCBgQHRkp0LdZvizBRLlW46k1bzhaqq5tXVVb6emZnha8hPSSOIbaJnObpQpTNpNV+oqs7s+/v7fHrV2dkpWiAvqv4OBSTpow02kR+vyHqh6lLNhN4QHRsbE3vlc61uU5wZQaLoAvXi4iK3C1VXUM2Li4tiDyrN2RGE5DHN8LFmghEkHWdHEICfEApI8BtVvtwb97Fm4mvdpQoF5PX1VWzZd29c9zCELHysmdhctymq/nZmilXJPxZb+VizSU4HBMCEUEDkoxlp+fj4EK3m0GM55fEEpwR58rFmYlvdpiT1dygg9IQHGmZoqa2tFa3m0AHL46nUI3B8rJnYVrcpSf0dCkjwYm1+fp4/dY6+ZXV2diZazYn76HdWPtZM4uo+ODjgfyw+UvV37KNH06Dbg9E7ILQvbxvSWarUsyB9+Uk+hkYmmxQKBba0tMS38+RjzaTUupOk+Y67nMqolNNv5Sqpv/nzFYXg4yhtW4rFojjKfPlYM7G5blOLqr9DIwglmJJMgommbVooadRWyYvHOPRg4Uq8oeVjzURXt/ydwY+jUPv19bXYq06q/v7vP9BJK/pZnuBQFUcOscEpiYp8bfmPSD8/ODjI20zyseY4aWon0T4rV7D/aE37WaTt77IDAuADvFEIoIGAAGggIAAaCAiABgICoIGAAGggIAAaCAiABgICoIGAAGggIAAaCAhALMb+AAnJ3n0YZFDxAAAAAElFTkSuQmCC;" parent="7026571954dc6520-1" vertex="1">
          <mxGeometry x="290" y="526.25" width="200" height="65" as="geometry" />
        </mxCell>
        <mxCell id="_4hZOMIkI4JRDynTKEF_-14" value="Button 5" style="strokeWidth=1;shadow=0;dashed=0;align=center;html=1;shape=mxgraph.mockup.buttons.button;strokeColor=#666666;mainText=;buttonStyle=round;fontSize=17;fontStyle=0;fillColor=none;whiteSpace=wrap;rounded=0;labelBackgroundColor=none;" parent="7026571954dc6520-1" vertex="1">
          <mxGeometry x="650" y="860" width="140" height="50" as="geometry" />
        </mxCell>
        <mxCell id="_4hZOMIkI4JRDynTKEF_-15" value="Go back to previous page" style="text;html=1;strokeColor=none;fillColor=none;align=center;verticalAlign=middle;whiteSpace=wrap;rounded=0;fontColor=#EA2EFF;fontSize=17;" parent="7026571954dc6520-1" vertex="1">
          <mxGeometry x="902.5" y="1050" width="77.5" height="70" as="geometry" />
        </mxCell>
        <mxCell id="_4hZOMIkI4JRDynTKEF_-16" value="" style="endArrow=none;html=1;rounded=0;fillColor=#e1d5e7;strokeColor=#9673a6;strokeWidth=2;exitX=1.013;exitY=0.498;exitDx=0;exitDy=0;exitPerimeter=0;" parent="7026571954dc6520-1" source="_4hZOMIkI4JRDynTKEF_-14" target="_4hZOMIkI4JRDynTKEF_-15" edge="1">
          <mxGeometry width="50" height="50" relative="1" as="geometry">
            <mxPoint x="318" y="1300" as="sourcePoint" />
            <mxPoint x="158" y="1285" as="targetPoint" />
          </mxGeometry>
        </mxCell>
        <mxCell id="EMS-jT7dY6hnE4moFdB5-1" value="CustomerID" style="text;html=1;strokeColor=none;fillColor=none;align=center;verticalAlign=middle;whiteSpace=wrap;rounded=0;fontSize=14;fontStyle=1" parent="7026571954dc6520-1" vertex="1">
          <mxGeometry x="280" y="273.75" width="120" height="55" as="geometry" />
        </mxCell>
        <mxCell id="EMS-jT7dY6hnE4moFdB5-2" value="00023" style="text;html=1;points=[];align=left;verticalAlign=top;spacingTop=-4;fontSize=12;fontFamily=Verdana;whiteSpace=wrap;" parent="7026571954dc6520-1" vertex="1">
          <mxGeometry x="300" y="340" width="240" height="40" as="geometry" />
        </mxCell>
        <mxCell id="EMS-jT7dY6hnE4moFdB5-105" value="" style="verticalLabelPosition=bottom;shadow=0;dashed=0;align=center;html=1;verticalAlign=top;strokeWidth=1;shape=mxgraph.mockup.graphics.simpleIcon;strokeColor=#999999;fillColor=#ffffff;rounded=0;labelBackgroundColor=none;fontFamily=Verdana;fontSize=12;fontColor=#000000;" parent="7026571954dc6520-1" vertex="1">
          <mxGeometry x="31.25" y="380" width="40" height="40" as="geometry" />
        </mxCell>
        <mxCell id="EMS-jT7dY6hnE4moFdB5-106" value="Requests (5)" style="text;html=1;align=center;verticalAlign=middle;resizable=0;points=[];autosize=1;strokeColor=none;fillColor=none;" parent="7026571954dc6520-1" vertex="1">
          <mxGeometry x="116.25" y="305" width="90" height="30" as="geometry" />
        </mxCell>
        <mxCell id="EMS-jT7dY6hnE4moFdB5-107" value="Shelters" style="text;html=1;align=center;verticalAlign=middle;resizable=0;points=[];autosize=1;strokeColor=none;fillColor=none;" parent="7026571954dc6520-1" vertex="1">
          <mxGeometry x="106.25" y="385" width="70" height="30" as="geometry" />
        </mxCell>
        <mxCell id="EMS-jT7dY6hnE4moFdB5-108" value="Members" style="text;html=1;align=center;verticalAlign=middle;resizable=0;points=[];autosize=1;strokeColor=none;fillColor=none;" parent="7026571954dc6520-1" vertex="1">
          <mxGeometry x="106.25" y="465" width="70" height="30" as="geometry" />
        </mxCell>
        <mxCell id="EMS-jT7dY6hnE4moFdB5-110" value="" style="verticalLabelPosition=bottom;shadow=0;dashed=0;align=center;html=1;verticalAlign=top;strokeWidth=1;shape=mxgraph.mockup.graphics.simpleIcon;strokeColor=#999999;fillColor=#ffffff;rounded=0;labelBackgroundColor=none;fontFamily=Verdana;fontSize=12;fontColor=#000000;" parent="7026571954dc6520-1" vertex="1">
          <mxGeometry x="31.25" y="460" width="40" height="40" as="geometry" />
        </mxCell>
        <mxCell id="EMS-jT7dY6hnE4moFdB5-111" value="" style="verticalLabelPosition=bottom;shadow=0;dashed=0;align=center;html=1;verticalAlign=top;strokeWidth=1;shape=mxgraph.mockup.graphics.simpleIcon;strokeColor=#999999;fillColor=#ffffff;rounded=0;labelBackgroundColor=none;fontFamily=Verdana;fontSize=12;fontColor=#000000;" parent="7026571954dc6520-1" vertex="1">
          <mxGeometry x="31.25" y="300" width="40" height="40" as="geometry" />
        </mxCell>
        <mxCell id="EMS-jT7dY6hnE4moFdB5-117" value="Dashboard" style="text;html=1;strokeColor=none;fillColor=none;align=center;verticalAlign=middle;whiteSpace=wrap;rounded=0;fontColor=#EA2EFF;fontSize=17;" parent="7026571954dc6520-1" vertex="1">
          <mxGeometry x="50" y="140" width="130" height="70" as="geometry" />
        </mxCell>
        <mxCell id="mRazqspsC4Ma7sNljstP-15" value="Field Date, cannot be edited." style="text;html=1;strokeColor=none;fillColor=none;align=center;verticalAlign=middle;whiteSpace=wrap;rounded=0;fontColor=#EA2EFF;fontSize=17;" parent="7026571954dc6520-1" vertex="1">
          <mxGeometry y="560" width="210" height="100" as="geometry" />
        </mxCell>
        <mxCell id="7hoG24ntT-Ix1rkKh1Q1-23" style="edgeStyle=orthogonalEdgeStyle;rounded=0;orthogonalLoop=1;jettySize=auto;html=1;fillColor=#e1d5e7;strokeColor=#9673a6;entryX=-0.006;entryY=0.391;entryDx=0;entryDy=0;entryPerimeter=0;exitX=1;exitY=0.25;exitDx=0;exitDy=0;" parent="7026571954dc6520-1" source="mRazqspsC4Ma7sNljstP-15" target="_4hZOMIkI4JRDynTKEF_-9" edge="1">
          <mxGeometry relative="1" as="geometry">
            <Array as="points">
              <mxPoint x="270" y="585" />
              <mxPoint x="270" y="552" />
            </Array>
          </mxGeometry>
        </mxCell>
        <mxCell id="W0My6ulO1FO-pSMdfBel-2" value="button for rejecting the registration" style="text;html=1;strokeColor=none;fillColor=none;align=center;verticalAlign=middle;whiteSpace=wrap;rounded=0;fontColor=#EA2EFF;fontSize=17;" parent="7026571954dc6520-1" vertex="1">
          <mxGeometry x="590" y="1060" width="87.5" height="90" as="geometry" />
        </mxCell>
        <mxCell id="I1iGWyOAsI178EyCgXX8-1" value="" style="edgeStyle=orthogonalEdgeStyle;rounded=0;orthogonalLoop=1;jettySize=auto;html=1;fillColor=#e1d5e7;strokeColor=#9673a6;exitX=0.75;exitY=0;exitDx=0;exitDy=0;" parent="7026571954dc6520-1" source="W0My6ulO1FO-pSMdfBel-2" target="W0My6ulO1FO-pSMdfBel-1" edge="1">
          <mxGeometry relative="1" as="geometry">
            <mxPoint x="676" y="850" as="sourcePoint" />
            <mxPoint x="660" y="680" as="targetPoint" />
          </mxGeometry>
        </mxCell>
        <mxCell id="W0My6ulO1FO-pSMdfBel-1" value="Button 4" style="strokeWidth=1;shadow=0;dashed=0;align=center;html=1;shape=mxgraph.mockup.buttons.button;strokeColor=#666666;mainText=;buttonStyle=round;fontSize=17;fontStyle=0;fillColor=none;whiteSpace=wrap;rounded=0;labelBackgroundColor=none;" parent="7026571954dc6520-1" vertex="1">
          <mxGeometry x="460" y="860" width="140" height="50" as="geometry" />
        </mxCell>
        <mxCell id="EMS-jT7dY6hnE4moFdB5-114" value="" style="rounded=0;whiteSpace=wrap;html=1;fillColor=none;" parent="7026571954dc6520-1" vertex="1">
          <mxGeometry x="10" y="273.75" width="210" height="252.5" as="geometry" />
        </mxCell>
        <mxCell id="EMS-jT7dY6hnE4moFdB5-119" style="edgeStyle=orthogonalEdgeStyle;rounded=0;orthogonalLoop=1;jettySize=auto;html=1;fillColor=#e1d5e7;strokeColor=#9673a6;" parent="7026571954dc6520-1" source="EMS-jT7dY6hnE4moFdB5-117" target="EMS-jT7dY6hnE4moFdB5-114" edge="1">
          <mxGeometry relative="1" as="geometry" />
        </mxCell>
        <mxCell id="I1iGWyOAsI178EyCgXX8-3" value="First Name" style="text;html=1;strokeColor=none;fillColor=none;align=center;verticalAlign=middle;whiteSpace=wrap;rounded=0;fontSize=14;fontStyle=1" parent="7026571954dc6520-1" vertex="1">
          <mxGeometry x="280" y="372.5" width="120" height="55" as="geometry" />
        </mxCell>
        <mxCell id="I1iGWyOAsI178EyCgXX8-4" value="&lt;font style=&quot;font-size: 14px;&quot;&gt;email&lt;/font&gt;" style="text;html=1;strokeColor=none;fillColor=none;align=center;verticalAlign=middle;whiteSpace=wrap;rounded=0;fontSize=14;fontStyle=1" parent="7026571954dc6520-1" vertex="1">
          <mxGeometry x="557.5" y="605" width="120" height="55" as="geometry" />
        </mxCell>
        <mxCell id="I1iGWyOAsI178EyCgXX8-6" value="&lt;font style=&quot;font-size: 14px;&quot;&gt;Birthday&lt;/font&gt;" style="text;html=1;strokeColor=none;fillColor=none;align=center;verticalAlign=middle;whiteSpace=wrap;rounded=0;fontSize=14;fontStyle=1" parent="7026571954dc6520-1" vertex="1">
          <mxGeometry x="270" y="471.25" width="120" height="55" as="geometry" />
        </mxCell>
        <mxCell id="I1iGWyOAsI178EyCgXX8-5" value="Phone number" style="text;html=1;strokeColor=none;fillColor=none;align=center;verticalAlign=middle;whiteSpace=wrap;rounded=0;fontSize=14;fontStyle=1" parent="7026571954dc6520-1" vertex="1">
          <mxGeometry x="580" y="482.5" width="120" height="55" as="geometry" />
        </mxCell>
        <mxCell id="I1iGWyOAsI178EyCgXX8-7" value="IC Number" style="text;html=1;strokeColor=none;fillColor=none;align=center;verticalAlign=middle;whiteSpace=wrap;rounded=0;fontSize=14;fontStyle=1" parent="7026571954dc6520-1" vertex="1">
          <mxGeometry x="270" y="600" width="120" height="55" as="geometry" />
        </mxCell>
        <mxCell id="I1iGWyOAsI178EyCgXX8-8" value="+608975474" style="text;html=1;strokeColor=none;fillColor=none;align=center;verticalAlign=middle;whiteSpace=wrap;rounded=0;fontSize=14;" parent="7026571954dc6520-1" vertex="1">
          <mxGeometry x="570" y="531.25" width="120" height="55" as="geometry" />
        </mxCell>
        <mxCell id="I1iGWyOAsI178EyCgXX8-13" value="Last Name" style="text;html=1;strokeColor=none;fillColor=none;align=center;verticalAlign=middle;whiteSpace=wrap;rounded=0;fontSize=14;fontStyle=1" parent="7026571954dc6520-1" vertex="1">
          <mxGeometry x="573.75" y="372.5" width="120" height="55" as="geometry" />
        </mxCell>
        <mxCell id="I1iGWyOAsI178EyCgXX8-14" value="&lt;font style=&quot;font-size: 16px;&quot;&gt;Title 1&lt;/font&gt;" style="text;html=1;strokeColor=default;fillColor=none;align=center;verticalAlign=middle;whiteSpace=wrap;rounded=0;" parent="7026571954dc6520-1" vertex="1">
          <mxGeometry x="260" y="170" width="275" height="50" as="geometry" />
        </mxCell>
        <mxCell id="I1iGWyOAsI178EyCgXX8-16" value="&lt;font style=&quot;font-size: 14px;&quot;&gt;Phill&lt;/font&gt;" style="text;html=1;strokeColor=none;fillColor=none;align=center;verticalAlign=middle;whiteSpace=wrap;rounded=0;fontSize=14;" parent="7026571954dc6520-1" vertex="1">
          <mxGeometry x="260" y="427.5" width="120" height="55" as="geometry" />
        </mxCell>
        <mxCell id="I1iGWyOAsI178EyCgXX8-17" value="&lt;font style=&quot;font-size: 14px;&quot;&gt;Bromlin&lt;/font&gt;" style="text;html=1;strokeColor=none;fillColor=none;align=center;verticalAlign=middle;whiteSpace=wrap;rounded=0;fontSize=14;" parent="7026571954dc6520-1" vertex="1">
          <mxGeometry x="557.5" y="427.5" width="120" height="55" as="geometry" />
        </mxCell>
        <mxCell id="I1iGWyOAsI178EyCgXX8-18" value="Phil2like@golf.com" style="text;html=1;strokeColor=none;fillColor=none;align=center;verticalAlign=middle;whiteSpace=wrap;rounded=0;fontSize=14;" parent="7026571954dc6520-1" vertex="1">
          <mxGeometry x="590" y="660" width="120" height="55" as="geometry" />
        </mxCell>
        <mxCell id="I1iGWyOAsI178EyCgXX8-19" value="UMN7564586" style="text;html=1;strokeColor=none;fillColor=none;align=center;verticalAlign=middle;whiteSpace=wrap;rounded=0;fontSize=14;" parent="7026571954dc6520-1" vertex="1">
          <mxGeometry x="280" y="655" width="120" height="55" as="geometry" />
        </mxCell>
        <mxCell id="mRazqspsC4Ma7sNljstP-1" value="" style="rounded=0;whiteSpace=wrap;html=1;fillColor=none;" parent="7026571954dc6520-1" vertex="1">
          <mxGeometry x="260" y="273.75" width="530" height="486.25" as="geometry" />
        </mxCell>
      </root>
    </mxGraphModel>
  </diagram>
</mxfile>
